name C:/MyDriveSym/Projects/mobilecap/Data\Session20210825_0002\mocap\ForceDataProcessed\walkingTS3_forces.mot
datacolumns 19
datarows 27
range 0.84950000 0.86250000
endheader 
time	R_ground_force_vx	R_ground_force_vy	R_ground_force_vz	R_ground_force_px	R_ground_force_py	R_ground_force_pz	R_ground_torque_x	R_ground_torque_y	R_ground_torque_z	L_ground_force_vx	L_ground_force_vy	L_ground_force_vz	L_ground_force_px	L_ground_force_py	L_ground_force_pz	L_ground_torque_x	L_ground_torque_y	L_ground_torque_z	
          0.84950000	         19.29397900	         86.13908600	         -4.31315900	          0.33107300	          0.00600000	         -0.10456300	          0.00000000	         -0.23021000	          0.00000000	       -115.09215800	        649.37553600	         40.56717400	          0.82845300	          0.00600000	         -0.31007900	          0.00000000	         -0.48205300	          0.00000000	
          0.85000000	         18.98533100	         84.91089800	         -4.26125000	          0.33143700	          0.00600000	         -0.10456400	          0.00000000	         -0.22742600	          0.00000000	       -115.20782000	        650.47996100	         40.67644100	          0.82866000	          0.00600000	         -0.31010000	          0.00000000	         -0.49042900	          0.00000000	
          0.85050000	         18.67889200	         83.69161400	         -4.20963300	          0.33180500	          0.00600000	         -0.10456500	          0.00000000	         -0.22464500	          0.00000000	       -115.31984900	        651.57175600	         40.78445900	          0.82886600	          0.00600000	         -0.31012000	          0.00000000	         -0.49877000	          0.00000000	
          0.85100000	         18.37467500	         82.48124400	         -4.15830700	          0.33217800	          0.00600000	         -0.10456500	          0.00000000	         -0.22186900	          0.00000000	       -115.42824900	        652.65091200	         40.89122500	          0.82907100	          0.00600000	         -0.31014000	          0.00000000	         -0.50707500	          0.00000000	
          0.85150000	         18.07269000	         81.27979500	         -4.10726900	          0.33255600	          0.00600000	         -0.10456500	          0.00000000	         -0.21909800	          0.00000000	       -115.53302200	        653.71742000	         40.99673700	          0.82927600	          0.00600000	         -0.31016100	          0.00000000	         -0.51534500	          0.00000000	
          0.85200000	         17.77294800	         80.08727400	         -4.05652000	          0.33294000	          0.00600000	         -0.10456500	          0.00000000	         -0.21633000	          0.00000000	       -115.63417200	        654.77127200	         41.10099200	          0.82948100	          0.00600000	         -0.31018100	          0.00000000	         -0.52357600	          0.00000000	
          0.85250000	         17.47546100	         78.90368800	         -4.00605600	          0.33332900	          0.00600000	         -0.10456400	          0.00000000	         -0.21356800	          0.00000000	       -115.73170100	        655.81246300	         41.20398700	          0.82968500	          0.00600000	         -0.31020100	          0.00000000	         -0.53176900	          0.00000000	
          0.85300000	         17.18023800	         77.72904200	         -3.95587700	          0.33372300	          0.00600000	         -0.10456200	          0.00000000	         -0.21081000	          0.00000000	       -115.82561500	        656.84098500	         41.30572100	          0.82988900	          0.00600000	         -0.31022100	          0.00000000	         -0.53992200	          0.00000000	
          0.85350000	         16.88728900	         76.56334000	         -3.90598100	          0.33412300	          0.00600000	         -0.10456100	          0.00000000	         -0.20805700	          0.00000000	       -115.91591600	        657.85683500	         41.40619300	          0.83009200	          0.00600000	         -0.31024100	          0.00000000	         -0.54803400	          0.00000000	
          0.85400000	         16.59662300	         75.40658600	         -3.85636600	          0.33453000	          0.00600000	         -0.10455800	          0.00000000	         -0.20531000	          0.00000000	       -116.00261000	        658.86000800	         41.50539900	          0.83029500	          0.00600000	         -0.31026100	          0.00000000	         -0.55610500	          0.00000000	
          0.85450000	         16.30825000	         74.25878200	         -3.80703200	          0.33494200	          0.00600000	         -0.10455500	          0.00000000	         -0.20256700	          0.00000000	       -116.08570100	        659.85050200	         41.60333900	          0.83049800	          0.00600000	         -0.31028100	          0.00000000	         -0.56413200	          0.00000000	
          0.85500000	         16.02217700	         73.11993000	         -3.75797700	          0.33536100	          0.00600000	         -0.10455200	          0.00000000	         -0.19983000	          0.00000000	       -116.16519400	        660.82831400	         41.70001100	          0.83070000	          0.00600000	         -0.31030100	          0.00000000	         -0.57211500	          0.00000000	
          0.85550000	         15.73841400	         71.99003100	         -3.70920000	          0.33578600	          0.00600000	         -0.10454800	          0.00000000	         -0.19709900	          0.00000000	       -116.24109500	        661.79344300	         41.79541500	          0.83090100	          0.00600000	         -0.31032100	          0.00000000	         -0.58005300	          0.00000000	
          0.85600000	         15.45696700	         70.86908500	         -3.66070000	          0.33621800	          0.00600000	         -0.10454300	          0.00000000	         -0.19437300	          0.00000000	       -116.31340900	        662.74588900	         41.88954900	          0.83110200	          0.00600000	         -0.31034000	          0.00000000	         -0.58794500	          0.00000000	
          0.85650000	         15.17784400	         69.75709000	         -3.61247500	          0.33665700	          0.00600000	         -0.10453800	          0.00000000	         -0.19165300	          0.00000000	       -116.38214100	        663.68565300	         41.98241300	          0.83130300	          0.00600000	         -0.31036000	          0.00000000	         -0.59579000	          0.00000000	
          0.85700000	         14.90105300	         68.65404400	         -3.56452400	          0.33710300	          0.00600000	         -0.10453200	          0.00000000	         -0.18894000	          0.00000000	       -116.44729800	        664.61273700	         42.07400600	          0.83150300	          0.00600000	         -0.31038000	          0.00000000	         -0.60358700	          0.00000000	
          0.85750000	         14.62659900	         67.55994600	         -3.51684700	          0.33755600	          0.00600000	         -0.10452600	          0.00000000	         -0.18623200	          0.00000000	       -116.50888700	        665.52714200	         42.16432700	          0.83170200	          0.00600000	         -0.31039900	          0.00000000	         -0.61133500	          0.00000000	
          0.85800000	         14.35448900	         66.47479100	         -3.46944100	          0.33801600	          0.00600000	         -0.10451900	          0.00000000	         -0.18353100	          0.00000000	       -116.56691300	        666.42887300	         42.25337700	          0.83190200	          0.00600000	         -0.31041800	          0.00000000	         -0.61903300	          0.00000000	
          0.85850000	         14.08472800	         65.39857600	         -3.42230700	          0.33848500	          0.00600000	         -0.10451100	          0.00000000	         -0.18083600	          0.00000000	       -116.62138400	        667.31793400	         42.34115600	          0.83210000	          0.00600000	         -0.31043800	          0.00000000	         -0.62667900	          0.00000000	
          0.85900000	         13.81732300	         64.33129500	         -3.37544300	          0.33896100	          0.00600000	         -0.10450300	          0.00000000	         -0.17814800	          0.00000000	       -116.67230700	        668.19433100	         42.42766300	          0.83229900	          0.00600000	         -0.31045700	          0.00000000	         -0.63427400	          0.00000000	
          0.85950000	         13.55227700	         63.27294200	         -3.32884700	          0.33944600	          0.00600000	         -0.10449400	          0.00000000	         -0.17546600	          0.00000000	       -116.71969000	        669.05807000	         42.51289800	          0.83249600	          0.00600000	         -0.31047700	          0.00000000	         -0.64181500	          0.00000000	
          0.86000000	         13.28959500	         62.22351000	         -3.28252000	          0.33993900	          0.00600000	         -0.10448400	          0.00000000	         -0.17279200	          0.00000000	       -116.76353900	        669.90915800	         42.59686300	          0.83269400	          0.00600000	         -0.31049600	          0.00000000	         -0.64930300	          0.00000000	
          0.86050000	         13.02928200	         61.18299300	         -3.23645900	          0.34044200	          0.00600000	         -0.10447300	          0.00000000	         -0.17012400	          0.00000000	       -116.80386400	        670.74760400	         42.67955700	          0.83289100	          0.00600000	         -0.31051500	          0.00000000	         -0.65673500	          0.00000000	
          0.86100000	         12.77134100	         60.15138000	         -3.19066500	          0.34095300	          0.00600000	         -0.10446200	          0.00000000	         -0.16746400	          0.00000000	       -116.84067200	        671.57341700	         42.76098100	          0.83308700	          0.00600000	         -0.31053400	          0.00000000	         -0.66411200	          0.00000000	
          0.86150000	         12.51577600	         59.12866400	         -3.14513600	          0.34147400	          0.00600000	         -0.10445000	          0.00000000	         -0.16481100	          0.00000000	       -116.87397300	        672.38660700	         42.84113700	          0.83328300	          0.00600000	         -0.31055300	          0.00000000	         -0.67143200	          0.00000000	
          0.86200000	         12.26258900	         58.11483500	         -3.09987100	          0.34200400	          0.00600000	         -0.10443700	          0.00000000	         -0.16216600	          0.00000000	       -116.90377400	        673.18718600	         42.92002400	          0.83347800	          0.00600000	         -0.31057200	          0.00000000	         -0.67869500	          0.00000000	
          0.86250000	         12.01178200	         57.10988100	         -3.05487000	          0.34254500	          0.00600000	         -0.10442300	          0.00000000	         -0.15952800	          0.00000000	       -116.93008600	        673.97516600	         42.99764500	          0.83367300	          0.00600000	         -0.31059100	          0.00000000	         -0.68589900	          0.00000000	
